<svg width="512" height="512" xmlns="http://www.w3.org/2000/svg" xmlns:svg="http://www.w3.org/2000/svg">
 <g class="layer">
  <title>Layer 1</title>
  <path id="svg_2" fill="#fc573b" d="m256.5,4c-138.66732,0 -251.5,112.83269 -251.5,251.5s112.83269,251.5 251.5,251.5s251.5,-112.83269 251.5,-251.5s-112.83269,-251.5 -251.5,-251.5zm92.61629,314.4978c8.17404,8.17406 8.17404,21.44442 0,29.64918c-4.09086,4.0832 -9.46349,6.13247 -14.80541,6.13247c-5.34958,0 -10.72221,-2.04927 -14.81307,-6.13247l-62.9978,-62.9978l-62.9978,62.9978c-4.09086,4.0832 -9.46349,6.13247 -14.81307,6.13247c-5.37263,0 -10.71455,-2.04927 -14.80541,-6.13247c-8.17406,-8.17404 -8.17406,-21.44442 0,-29.64918l62.96711,-62.9978l-62.9978,-62.9978c-8.17406,-8.17406 -8.17406,-21.44442 0,-29.64918c8.17404,-8.20476 21.44442,-8.17406 29.64918,0l62.9978,62.9978l62.9978,-62.9978c8.17406,-8.17406 21.44442,-8.17406 29.64918,0c8.20476,8.17404 8.17406,21.44442 0,29.64918l-62.9978,62.9978l62.96711,62.9978zm0,0"/>
 </g>
</svg>
