<svg width="512" height="512" xmlns="http://www.w3.org/2000/svg" xmlns:svg="http://www.w3.org/2000/svg">
 <g class="layer">
  <title>Layer 1</title>
  <path id="svg_2" fill="#ffd200" d="m256.5,3.99999c-138.66732,0 -251.50001,112.83269 -251.50001,251.50001s112.83269,251.50001 251.50001,251.50001s251.50001,-112.83269 251.50001,-251.50001s-112.83269,-251.50001 -251.50001,-251.50001zm127.47692,198.2113l-136.21895,136.21893c-4.08318,4.09086 -9.46347,6.13247 -14.80539,6.13247c-5.37263,0 -10.72223,-2.04161 -14.80541,-6.13247l-68.12483,-68.12481c-8.17404,-8.17406 -8.17404,-21.43676 0,-29.64152s21.43676,-8.17406 29.64152,0l53.28873,53.28104l121.41351,-121.40587c8.17406,-8.17404 21.43676,-8.17404 29.64152,0s8.14335,21.46747 -0.03069,29.67223zm0,0"/>
 </g>
</svg>
